<?xml version="1.0" encoding="us-ascii" standalone="no"?><svg xmlns="http://www.w3.org/2000/svg" xmlns:xlink="http://www.w3.org/1999/xlink" contentStyleType="text/css" height="961px" preserveAspectRatio="none" style="width:2276px;height:961px;background:#FFFFFF;" version="1.1" viewBox="0 0 2276 961" width="2276px" zoomAndPan="magnify"><defs/><g><!--class Empleado--><g id="elem_Empleado"><rect codeLine="1" fill="#F1F1F1" height="103.8633" id="Empleado" rx="2.5" ry="2.5" style="stroke:#181818;stroke-width:0.5;" width="205" x="228.5" y="165"/><ellipse cx="295.25" cy="181" fill="#A9DCDF" rx="11" ry="11" style="stroke:#181818;stroke-width:1.0;"/><path d="M297.4375,182.7656 L293.2969,182.7656 L292.875,183.7969 L293.2969,183.7969 Q293.9063,183.7969 294.1719,184.0313 Q294.4375,184.2656 294.4375,184.6563 Q294.4375,185.0313 294.1719,185.2656 Q293.9063,185.5 293.2969,185.5 L291,185.5 Q290.3906,185.5 290.1406,185.2656 Q289.875,185.0313 289.875,184.6406 Q289.875,184.2656 290.1563,184.0313 Q290.4219,183.7813 291.0469,183.7969 L293.7188,177.1406 L292.6094,177.1406 Q292,177.1406 291.7344,176.9063 Q291.4688,176.6719 291.4688,176.2813 Q291.4688,175.9063 291.7344,175.6719 Q292,175.4375 292.6094,175.4375 L296.2813,175.4375 L299.6719,183.7969 Q300.2656,183.7969 300.4531,183.9375 Q300.8438,184.2031 300.8438,184.6563 Q300.8438,185.0313 300.5781,185.2656 Q300.3281,185.5 299.7188,185.5 L297.4219,185.5 Q296.8125,185.5 296.5469,185.2656 Q296.2813,185.0313 296.2813,184.6406 Q296.2813,184.2656 296.5469,184.0313 Q296.8125,183.7969 297.4219,183.7969 L297.8438,183.7969 L297.4375,182.7656 Z M296.7188,181.0625 L295.3594,177.6875 L293.9844,181.0625 L296.7188,181.0625 Z " fill="#000000"/><text fill="#000000" font-family="sans-serif" font-size="14" font-style="italic" lengthAdjust="spacing" textLength="63" x="315.75" y="186.7969">Empleado</text><line style="stroke:#181818;stroke-width:0.5;" x1="229.5" x2="432.5" y1="197" y2="197"/><polygon fill="none" points="239.5,206.8105,243.5,210.8105,239.5,214.8105,235.5,210.8105" style="stroke:#B38D22;stroke-width:1.0;"/><text fill="#000000" font-family="sans-serif" font-size="14" lengthAdjust="spacing" textLength="179" x="248.5" y="216.1074">Hamburguesa hamburguesa</text><polygon fill="none" points="239.5,225.4316,243.5,229.4316,239.5,233.4316,235.5,229.4316" style="stroke:#B38D22;stroke-width:1.0;"/><text fill="#000000" font-family="sans-serif" font-size="14" lengthAdjust="spacing" textLength="174" x="248.5" y="234.7285">boolean tieneHamburguesa</text><line style="stroke:#181818;stroke-width:0.5;" x1="229.5" x2="432.5" y1="242.2422" y2="242.2422"/><ellipse cx="239.5" cy="257.0527" fill="#84BE84" rx="3" ry="3" style="stroke:#038048;stroke-width:1.0;"/><text fill="#000000" font-family="sans-serif" font-size="14" lengthAdjust="spacing" textLength="73" x="248.5" y="261.3496">Empleado()</text></g><!--class Ingrediente--><g id="elem_Ingrediente"><rect codeLine="7" fill="#F1F1F1" height="103.8633" id="Ingrediente" rx="2.5" ry="2.5" style="stroke:#181818;stroke-width:0.5;" width="169" x="1121.5" y="165"/><ellipse cx="1165.75" cy="181" fill="#A9DCDF" rx="11" ry="11" style="stroke:#181818;stroke-width:1.0;"/><path d="M1167.9375,182.7656 L1163.7969,182.7656 L1163.375,183.7969 L1163.7969,183.7969 Q1164.4063,183.7969 1164.6719,184.0313 Q1164.9375,184.2656 1164.9375,184.6563 Q1164.9375,185.0313 1164.6719,185.2656 Q1164.4063,185.5 1163.7969,185.5 L1161.5,185.5 Q1160.8906,185.5 1160.6406,185.2656 Q1160.375,185.0313 1160.375,184.6406 Q1160.375,184.2656 1160.6563,184.0313 Q1160.9219,183.7813 1161.5469,183.7969 L1164.2188,177.1406 L1163.1094,177.1406 Q1162.5,177.1406 1162.2344,176.9063 Q1161.9688,176.6719 1161.9688,176.2813 Q1161.9688,175.9063 1162.2344,175.6719 Q1162.5,175.4375 1163.1094,175.4375 L1166.7813,175.4375 L1170.1719,183.7969 Q1170.7656,183.7969 1170.9531,183.9375 Q1171.3438,184.2031 1171.3438,184.6563 Q1171.3438,185.0313 1171.0781,185.2656 Q1170.8281,185.5 1170.2188,185.5 L1167.9219,185.5 Q1167.3125,185.5 1167.0469,185.2656 Q1166.7813,185.0313 1166.7813,184.6406 Q1166.7813,184.2656 1167.0469,184.0313 Q1167.3125,183.7969 1167.9219,183.7969 L1168.3438,183.7969 L1167.9375,182.7656 Z M1167.2188,181.0625 L1165.8594,177.6875 L1164.4844,181.0625 L1167.2188,181.0625 Z " fill="#000000"/><text fill="#000000" font-family="sans-serif" font-size="14" font-style="italic" lengthAdjust="spacing" textLength="72" x="1186.25" y="186.7969">Ingrediente</text><line style="stroke:#181818;stroke-width:0.5;" x1="1122.5" x2="1289.5" y1="197" y2="197"/><polygon fill="none" points="1132.5,206.8105,1136.5,210.8105,1132.5,214.8105,1128.5,210.8105" style="stroke:#B38D22;stroke-width:1.0;"/><text fill="#000000" font-family="sans-serif" font-size="14" lengthAdjust="spacing" textLength="93" x="1141.5" y="216.1074">nombre: String</text><line style="stroke:#181818;stroke-width:0.5;" x1="1122.5" x2="1289.5" y1="223.6211" y2="223.6211"/><ellipse cx="1132.5" cy="238.4316" fill="#84BE84" rx="3" ry="3" style="stroke:#038048;stroke-width:1.0;"/><text fill="#000000" font-family="sans-serif" font-size="14" lengthAdjust="spacing" textLength="109" x="1141.5" y="242.7285">describir(): String</text><ellipse cx="1132.5" cy="257.0527" fill="#84BE84" rx="3" ry="3" style="stroke:#038048;stroke-width:1.0;"/><text fill="#000000" font-family="sans-serif" font-size="14" lengthAdjust="spacing" textLength="143" x="1141.5" y="261.3496">abstract void mostrar()</text></g><!--class Extra--><g id="elem_Extra"><rect codeLine="13" fill="#F1F1F1" height="66.6211" id="Extra" rx="2.5" ry="2.5" style="stroke:#181818;stroke-width:0.5;" width="157" x="649.5" y="514.5"/><ellipse cx="707.75" cy="530.5" fill="#A9DCDF" rx="11" ry="11" style="stroke:#181818;stroke-width:1.0;"/><path d="M709.9375,532.2656 L705.7969,532.2656 L705.375,533.2969 L705.7969,533.2969 Q706.4063,533.2969 706.6719,533.5313 Q706.9375,533.7656 706.9375,534.1563 Q706.9375,534.5313 706.6719,534.7656 Q706.4063,535 705.7969,535 L703.5,535 Q702.8906,535 702.6406,534.7656 Q702.375,534.5313 702.375,534.1406 Q702.375,533.7656 702.6563,533.5313 Q702.9219,533.2813 703.5469,533.2969 L706.2188,526.6406 L705.1094,526.6406 Q704.5,526.6406 704.2344,526.4063 Q703.9688,526.1719 703.9688,525.7813 Q703.9688,525.4063 704.2344,525.1719 Q704.5,524.9375 705.1094,524.9375 L708.7813,524.9375 L712.1719,533.2969 Q712.7656,533.2969 712.9531,533.4375 Q713.3438,533.7031 713.3438,534.1563 Q713.3438,534.5313 713.0781,534.7656 Q712.8281,535 712.2188,535 L709.9219,535 Q709.3125,535 709.0469,534.7656 Q708.7813,534.5313 708.7813,534.1406 Q708.7813,533.7656 709.0469,533.5313 Q709.3125,533.2969 709.9219,533.2969 L710.3438,533.2969 L709.9375,532.2656 Z M709.2188,530.5625 L707.8594,527.1875 L706.4844,530.5625 L709.2188,530.5625 Z " fill="#000000"/><text fill="#000000" font-family="sans-serif" font-size="14" font-style="italic" lengthAdjust="spacing" textLength="32" x="728.25" y="536.2969">Extra</text><line style="stroke:#181818;stroke-width:0.5;" x1="650.5" x2="805.5" y1="546.5" y2="546.5"/><line style="stroke:#181818;stroke-width:0.5;" x1="650.5" x2="805.5" y1="554.5" y2="554.5"/><polygon fill="#FFFF44" points="660.5,564.3105,664.5,568.3105,660.5,572.3105,656.5,568.3105" style="stroke:#B38D22;stroke-width:1.0;"/><text fill="#000000" font-family="sans-serif" font-size="14" lengthAdjust="spacing" textLength="131" x="669.5" y="573.6074">Extra(String nombre)</text></g><!--class Carne--><g id="elem_Carne"><rect codeLine="16" fill="#F1F1F1" height="122.4844" id="Carne" rx="2.5" ry="2.5" style="stroke:#181818;stroke-width:0.5;" width="261" x="1075.5" y="487"/><ellipse cx="1182.25" cy="503" fill="#A9DCDF" rx="11" ry="11" style="stroke:#181818;stroke-width:1.0;"/><path d="M1184.4375,504.7656 L1180.2969,504.7656 L1179.875,505.7969 L1180.2969,505.7969 Q1180.9063,505.7969 1181.1719,506.0313 Q1181.4375,506.2656 1181.4375,506.6563 Q1181.4375,507.0313 1181.1719,507.2656 Q1180.9063,507.5 1180.2969,507.5 L1178,507.5 Q1177.3906,507.5 1177.1406,507.2656 Q1176.875,507.0313 1176.875,506.6406 Q1176.875,506.2656 1177.1563,506.0313 Q1177.4219,505.7813 1178.0469,505.7969 L1180.7188,499.1406 L1179.6094,499.1406 Q1179,499.1406 1178.7344,498.9063 Q1178.4688,498.6719 1178.4688,498.2813 Q1178.4688,497.9063 1178.7344,497.6719 Q1179,497.4375 1179.6094,497.4375 L1183.2813,497.4375 L1186.6719,505.7969 Q1187.2656,505.7969 1187.4531,505.9375 Q1187.8438,506.2031 1187.8438,506.6563 Q1187.8438,507.0313 1187.5781,507.2656 Q1187.3281,507.5 1186.7188,507.5 L1184.4219,507.5 Q1183.8125,507.5 1183.5469,507.2656 Q1183.2813,507.0313 1183.2813,506.6406 Q1183.2813,506.2656 1183.5469,506.0313 Q1183.8125,505.7969 1184.4219,505.7969 L1184.8438,505.7969 L1184.4375,504.7656 Z M1183.7188,503.0625 L1182.3594,499.6875 L1180.9844,503.0625 L1183.7188,503.0625 Z " fill="#000000"/><text fill="#000000" font-family="sans-serif" font-size="14" font-style="italic" lengthAdjust="spacing" textLength="39" x="1202.75" y="508.7969">Carne</text><line style="stroke:#181818;stroke-width:0.5;" x1="1076.5" x2="1335.5" y1="519" y2="519"/><rect fill="none" height="6" style="stroke:#C82930;stroke-width:1.0;" width="6" x="1083.5" y="530.8105"/><text fill="#000000" font-family="sans-serif" font-size="14" lengthAdjust="spacing" textLength="93" x="1095.5" y="538.1074">coccion: String</text><line style="stroke:#181818;stroke-width:0.5;" x1="1076.5" x2="1335.5" y1="545.6211" y2="545.6211"/><ellipse cx="1086.5" cy="560.4316" fill="#84BE84" rx="3" ry="3" style="stroke:#038048;stroke-width:1.0;"/><text fill="#000000" font-family="sans-serif" font-size="14" lengthAdjust="spacing" textLength="235" x="1095.5" y="564.7285">Carne(String nombre, String coccion)</text><ellipse cx="1086.5" cy="579.0527" fill="#84BE84" rx="3" ry="3" style="stroke:#038048;stroke-width:1.0;"/><text fill="#000000" font-family="sans-serif" font-size="14" lengthAdjust="spacing" textLength="109" x="1095.5" y="583.3496">describir(): String</text><ellipse cx="1086.5" cy="597.6738" fill="#84BE84" rx="3" ry="3" style="stroke:#038048;stroke-width:1.0;"/><text fill="#000000" font-family="sans-serif" font-size="14" lengthAdjust="spacing" textLength="143" x="1095.5" y="601.9707">abstract void mostrar()</text></g><!--class Pan--><g id="elem_Pan"><rect codeLine="23" fill="#F1F1F1" height="66.6211" id="Pan" rx="2.5" ry="2.5" style="stroke:#181818;stroke-width:0.5;" width="150" x="1382" y="514.5"/><ellipse cx="1440.25" cy="530.5" fill="#A9DCDF" rx="11" ry="11" style="stroke:#181818;stroke-width:1.0;"/><path d="M1442.4375,532.2656 L1438.2969,532.2656 L1437.875,533.2969 L1438.2969,533.2969 Q1438.9063,533.2969 1439.1719,533.5313 Q1439.4375,533.7656 1439.4375,534.1563 Q1439.4375,534.5313 1439.1719,534.7656 Q1438.9063,535 1438.2969,535 L1436,535 Q1435.3906,535 1435.1406,534.7656 Q1434.875,534.5313 1434.875,534.1406 Q1434.875,533.7656 1435.1563,533.5313 Q1435.4219,533.2813 1436.0469,533.2969 L1438.7188,526.6406 L1437.6094,526.6406 Q1437,526.6406 1436.7344,526.4063 Q1436.4688,526.1719 1436.4688,525.7813 Q1436.4688,525.4063 1436.7344,525.1719 Q1437,524.9375 1437.6094,524.9375 L1441.2813,524.9375 L1444.6719,533.2969 Q1445.2656,533.2969 1445.4531,533.4375 Q1445.8438,533.7031 1445.8438,534.1563 Q1445.8438,534.5313 1445.5781,534.7656 Q1445.3281,535 1444.7188,535 L1442.4219,535 Q1441.8125,535 1441.5469,534.7656 Q1441.2813,534.5313 1441.2813,534.1406 Q1441.2813,533.7656 1441.5469,533.5313 Q1441.8125,533.2969 1442.4219,533.2969 L1442.8438,533.2969 L1442.4375,532.2656 Z M1441.7188,530.5625 L1440.3594,527.1875 L1438.9844,530.5625 L1441.7188,530.5625 Z " fill="#000000"/><text fill="#000000" font-family="sans-serif" font-size="14" font-style="italic" lengthAdjust="spacing" textLength="25" x="1460.75" y="536.2969">Pan</text><line style="stroke:#181818;stroke-width:0.5;" x1="1383" x2="1531" y1="546.5" y2="546.5"/><line style="stroke:#181818;stroke-width:0.5;" x1="1383" x2="1531" y1="554.5" y2="554.5"/><polygon fill="#FFFF44" points="1393,564.3105,1397,568.3105,1393,572.3105,1389,568.3105" style="stroke:#B38D22;stroke-width:1.0;"/><text fill="#000000" font-family="sans-serif" font-size="14" lengthAdjust="spacing" textLength="124" x="1402" y="573.6074">Pan(String nombre)</text></g><!--class Salsa--><g id="elem_Salsa"><rect codeLine="26" fill="#F1F1F1" height="122.4844" id="Salsa" rx="2.5" ry="2.5" style="stroke:#181818;stroke-width:0.5;" width="263" x="196.5" y="669"/><ellipse cx="306.25" cy="685" fill="#A9DCDF" rx="11" ry="11" style="stroke:#181818;stroke-width:1.0;"/><path d="M308.4375,686.7656 L304.2969,686.7656 L303.875,687.7969 L304.2969,687.7969 Q304.9063,687.7969 305.1719,688.0313 Q305.4375,688.2656 305.4375,688.6563 Q305.4375,689.0313 305.1719,689.2656 Q304.9063,689.5 304.2969,689.5 L302,689.5 Q301.3906,689.5 301.1406,689.2656 Q300.875,689.0313 300.875,688.6406 Q300.875,688.2656 301.1563,688.0313 Q301.4219,687.7813 302.0469,687.7969 L304.7188,681.1406 L303.6094,681.1406 Q303,681.1406 302.7344,680.9063 Q302.4688,680.6719 302.4688,680.2813 Q302.4688,679.9063 302.7344,679.6719 Q303,679.4375 303.6094,679.4375 L307.2813,679.4375 L310.6719,687.7969 Q311.2656,687.7969 311.4531,687.9375 Q311.8438,688.2031 311.8438,688.6563 Q311.8438,689.0313 311.5781,689.2656 Q311.3281,689.5 310.7188,689.5 L308.4219,689.5 Q307.8125,689.5 307.5469,689.2656 Q307.2813,689.0313 307.2813,688.6406 Q307.2813,688.2656 307.5469,688.0313 Q307.8125,687.7969 308.4219,687.7969 L308.8438,687.7969 L308.4375,686.7656 Z M307.7188,685.0625 L306.3594,681.6875 L304.9844,685.0625 L307.7188,685.0625 Z " fill="#000000"/><text fill="#000000" font-family="sans-serif" font-size="14" font-style="italic" lengthAdjust="spacing" textLength="35" x="326.75" y="690.7969">Salsa</text><line style="stroke:#181818;stroke-width:0.5;" x1="197.5" x2="458.5" y1="701" y2="701"/><rect fill="none" height="6" style="stroke:#C82930;stroke-width:1.0;" width="6" x="204.5" y="712.8105"/><text fill="#000000" font-family="sans-serif" font-size="14" lengthAdjust="spacing" textLength="99" x="216.5" y="720.1074">cantidad: String</text><line style="stroke:#181818;stroke-width:0.5;" x1="197.5" x2="458.5" y1="727.6211" y2="727.6211"/><polygon fill="#FFFF44" points="207.5,737.4316,211.5,741.4316,207.5,745.4316,203.5,741.4316" style="stroke:#B38D22;stroke-width:1.0;"/><text fill="#000000" font-family="sans-serif" font-size="14" lengthAdjust="spacing" textLength="237" x="216.5" y="746.7285">Salsa(String nombre, String cantidad)</text><ellipse cx="207.5" cy="761.0527" fill="#84BE84" rx="3" ry="3" style="stroke:#038048;stroke-width:1.0;"/><text fill="#000000" font-family="sans-serif" font-size="14" lengthAdjust="spacing" textLength="109" x="216.5" y="765.3496">describir(): String</text><ellipse cx="207.5" cy="779.6738" fill="#84BE84" rx="3" ry="3" style="stroke:#038048;stroke-width:1.0;"/><text fill="#000000" font-family="sans-serif" font-size="14" lengthAdjust="spacing" textLength="143" x="216.5" y="783.9707">abstract void mostrar()</text></g><!--class Ketchup--><g id="elem_Ketchup"><rect codeLine="33" fill="#F1F1F1" height="103.8633" id="Ketchup" rx="2.5" ry="2.5" style="stroke:#181818;stroke-width:0.5;" width="216" x="7" y="851"/><ellipse cx="84.75" cy="867" fill="#ADD1B2" rx="11" ry="11" style="stroke:#181818;stroke-width:1.0;"/><path d="M87.5156,862.875 Q87.6719,862.6563 87.8594,862.5469 Q88.0469,862.4375 88.2656,862.4375 Q88.6406,862.4375 88.875,862.7031 Q89.1094,862.9531 89.1094,863.5625 L89.1094,865.0156 Q89.1094,865.625 88.875,865.8906 Q88.6406,866.1563 88.2656,866.1563 Q87.9219,866.1563 87.7188,865.9531 Q87.5156,865.7656 87.4063,865.25 Q87.3594,864.8906 87.1719,864.7031 Q86.8438,864.3281 86.2344,864.1094 Q85.625,863.8906 85,863.8906 Q84.2344,863.8906 83.5938,864.2188 Q82.9688,864.5469 82.4688,865.2969 Q81.9844,866.0469 81.9844,867.0781 L81.9844,868.1719 Q81.9844,869.4063 82.875,870.2344 Q83.7656,871.0469 85.3594,871.0469 Q86.2969,871.0469 86.9531,870.7969 Q87.3438,870.6406 87.7656,870.2031 Q88.0313,869.9375 88.1719,869.8594 Q88.3281,869.7813 88.5313,869.7813 Q88.8594,869.7813 89.1094,870.0469 Q89.375,870.2969 89.375,870.6406 Q89.375,870.9844 89.0313,871.3906 Q88.5313,871.9688 87.7344,872.2969 Q86.6563,872.75 85.3594,872.75 Q83.8438,872.75 82.6406,872.125 Q81.6563,871.625 80.9688,870.5625 Q80.2813,869.4844 80.2813,868.2031 L80.2813,867.0469 Q80.2813,865.7188 80.8906,864.5781 Q81.5156,863.4219 82.6094,862.8125 Q83.7031,862.1875 84.9375,862.1875 Q85.6719,862.1875 86.3125,862.3594 Q86.9688,862.5156 87.5156,862.875 Z " fill="#000000"/><text fill="#000000" font-family="sans-serif" font-size="14" lengthAdjust="spacing" textLength="52" x="105.25" y="872.7969">Ketchup</text><line style="stroke:#181818;stroke-width:0.5;" x1="8" x2="222" y1="883" y2="883"/><text fill="#000000" font-family="sans-serif" font-size="14" lengthAdjust="spacing" textLength="204" x="13" y="902.1074">final REPRESENTACION : String</text><line style="stroke:#181818;stroke-width:0.5;" x1="8" x2="222" y1="909.6211" y2="909.6211"/><ellipse cx="18" cy="924.4316" fill="#84BE84" rx="3" ry="3" style="stroke:#038048;stroke-width:1.0;"/><text fill="#000000" font-family="sans-serif" font-size="14" lengthAdjust="spacing" textLength="157" x="27" y="928.7285">Ketchup(String cantidad)</text><ellipse cx="18" cy="943.0527" fill="#84BE84" rx="3" ry="3" style="stroke:#038048;stroke-width:1.0;"/><text fill="#000000" font-family="sans-serif" font-size="14" lengthAdjust="spacing" textLength="88" x="27" y="947.3496">void mostrar()</text></g><!--class Mayonesa--><g id="elem_Mayonesa"><rect codeLine="39" fill="#F1F1F1" height="103.8633" id="Mayonesa" rx="2.5" ry="2.5" style="stroke:#181818;stroke-width:0.5;" width="216" x="258" y="851"/><ellipse cx="329.25" cy="867" fill="#ADD1B2" rx="11" ry="11" style="stroke:#181818;stroke-width:1.0;"/><path d="M332.0156,862.875 Q332.1719,862.6563 332.3594,862.5469 Q332.5469,862.4375 332.7656,862.4375 Q333.1406,862.4375 333.375,862.7031 Q333.6094,862.9531 333.6094,863.5625 L333.6094,865.0156 Q333.6094,865.625 333.375,865.8906 Q333.1406,866.1563 332.7656,866.1563 Q332.4219,866.1563 332.2188,865.9531 Q332.0156,865.7656 331.9063,865.25 Q331.8594,864.8906 331.6719,864.7031 Q331.3438,864.3281 330.7344,864.1094 Q330.125,863.8906 329.5,863.8906 Q328.7344,863.8906 328.0938,864.2188 Q327.4688,864.5469 326.9688,865.2969 Q326.4844,866.0469 326.4844,867.0781 L326.4844,868.1719 Q326.4844,869.4063 327.375,870.2344 Q328.2656,871.0469 329.8594,871.0469 Q330.7969,871.0469 331.4531,870.7969 Q331.8438,870.6406 332.2656,870.2031 Q332.5313,869.9375 332.6719,869.8594 Q332.8281,869.7813 333.0313,869.7813 Q333.3594,869.7813 333.6094,870.0469 Q333.875,870.2969 333.875,870.6406 Q333.875,870.9844 333.5313,871.3906 Q333.0313,871.9688 332.2344,872.2969 Q331.1563,872.75 329.8594,872.75 Q328.3438,872.75 327.1406,872.125 Q326.1563,871.625 325.4688,870.5625 Q324.7813,869.4844 324.7813,868.2031 L324.7813,867.0469 Q324.7813,865.7188 325.3906,864.5781 Q326.0156,863.4219 327.1094,862.8125 Q328.2031,862.1875 329.4375,862.1875 Q330.1719,862.1875 330.8125,862.3594 Q331.4688,862.5156 332.0156,862.875 Z " fill="#000000"/><text fill="#000000" font-family="sans-serif" font-size="14" lengthAdjust="spacing" textLength="65" x="349.75" y="872.7969">Mayonesa</text><line style="stroke:#181818;stroke-width:0.5;" x1="259" x2="473" y1="883" y2="883"/><text fill="#000000" font-family="sans-serif" font-size="14" lengthAdjust="spacing" textLength="204" x="264" y="902.1074">final REPRESENTACION : String</text><line style="stroke:#181818;stroke-width:0.5;" x1="259" x2="473" y1="909.6211" y2="909.6211"/><ellipse cx="269" cy="924.4316" fill="#84BE84" rx="3" ry="3" style="stroke:#038048;stroke-width:1.0;"/><text fill="#000000" font-family="sans-serif" font-size="14" lengthAdjust="spacing" textLength="170" x="278" y="928.7285">Mayonesa(String cantidad)</text><ellipse cx="269" cy="943.0527" fill="#84BE84" rx="3" ry="3" style="stroke:#038048;stroke-width:1.0;"/><text fill="#000000" font-family="sans-serif" font-size="14" lengthAdjust="spacing" textLength="88" x="278" y="947.3496">void mostrar()</text></g><!--class panInter--><g id="elem_panInter"><rect codeLine="45" fill="#F1F1F1" height="85.2422" id="panInter" rx="2.5" ry="2.5" style="stroke:#181818;stroke-width:0.5;" width="114" x="495" y="687.5"/><ellipse cx="523.5" cy="703.5" fill="#ADD1B2" rx="11" ry="11" style="stroke:#181818;stroke-width:1.0;"/><path d="M526.2656,699.375 Q526.4219,699.1563 526.6094,699.0469 Q526.7969,698.9375 527.0156,698.9375 Q527.3906,698.9375 527.625,699.2031 Q527.8594,699.4531 527.8594,700.0625 L527.8594,701.5156 Q527.8594,702.125 527.625,702.3906 Q527.3906,702.6563 527.0156,702.6563 Q526.6719,702.6563 526.4688,702.4531 Q526.2656,702.2656 526.1563,701.75 Q526.1094,701.3906 525.9219,701.2031 Q525.5938,700.8281 524.9844,700.6094 Q524.375,700.3906 523.75,700.3906 Q522.9844,700.3906 522.3438,700.7188 Q521.7188,701.0469 521.2188,701.7969 Q520.7344,702.5469 520.7344,703.5781 L520.7344,704.6719 Q520.7344,705.9063 521.625,706.7344 Q522.5156,707.5469 524.1094,707.5469 Q525.0469,707.5469 525.7031,707.2969 Q526.0938,707.1406 526.5156,706.7031 Q526.7813,706.4375 526.9219,706.3594 Q527.0781,706.2813 527.2813,706.2813 Q527.6094,706.2813 527.8594,706.5469 Q528.125,706.7969 528.125,707.1406 Q528.125,707.4844 527.7813,707.8906 Q527.2813,708.4688 526.4844,708.7969 Q525.4063,709.25 524.1094,709.25 Q522.5938,709.25 521.3906,708.625 Q520.4063,708.125 519.7188,707.0625 Q519.0313,705.9844 519.0313,704.7031 L519.0313,703.5469 Q519.0313,702.2188 519.6406,701.0781 Q520.2656,699.9219 521.3594,699.3125 Q522.4531,698.6875 523.6875,698.6875 Q524.4219,698.6875 525.0625,698.8594 Q525.7188,699.0156 526.2656,699.375 Z " fill="#000000"/><text fill="#000000" font-family="sans-serif" font-size="14" lengthAdjust="spacing" textLength="52" x="540.5" y="709.2969">panInter</text><line style="stroke:#181818;stroke-width:0.5;" x1="496" x2="608" y1="719.5" y2="719.5"/><line style="stroke:#181818;stroke-width:0.5;" x1="496" x2="608" y1="727.5" y2="727.5"/><ellipse cx="506" cy="742.3105" fill="#84BE84" rx="3" ry="3" style="stroke:#038048;stroke-width:1.0;"/><text fill="#000000" font-family="sans-serif" font-size="14" lengthAdjust="spacing" textLength="62" x="515" y="746.6074">panInter()</text><ellipse cx="506" cy="760.9316" fill="#84BE84" rx="3" ry="3" style="stroke:#038048;stroke-width:1.0;"/><text fill="#000000" font-family="sans-serif" font-size="14" lengthAdjust="spacing" textLength="88" x="515" y="765.2285">void mostrar()</text></g><!--class Pollo--><g id="elem_Pollo"><rect codeLine="49" fill="#F1F1F1" height="103.8633" id="Pollo" rx="2.5" ry="2.5" style="stroke:#181818;stroke-width:0.5;" width="216" x="1098" y="678"/><ellipse cx="1186.25" cy="694" fill="#ADD1B2" rx="11" ry="11" style="stroke:#181818;stroke-width:1.0;"/><path d="M1189.0156,689.875 Q1189.1719,689.6563 1189.3594,689.5469 Q1189.5469,689.4375 1189.7656,689.4375 Q1190.1406,689.4375 1190.375,689.7031 Q1190.6094,689.9531 1190.6094,690.5625 L1190.6094,692.0156 Q1190.6094,692.625 1190.375,692.8906 Q1190.1406,693.1563 1189.7656,693.1563 Q1189.4219,693.1563 1189.2188,692.9531 Q1189.0156,692.7656 1188.9063,692.25 Q1188.8594,691.8906 1188.6719,691.7031 Q1188.3438,691.3281 1187.7344,691.1094 Q1187.125,690.8906 1186.5,690.8906 Q1185.7344,690.8906 1185.0938,691.2188 Q1184.4688,691.5469 1183.9688,692.2969 Q1183.4844,693.0469 1183.4844,694.0781 L1183.4844,695.1719 Q1183.4844,696.4063 1184.375,697.2344 Q1185.2656,698.0469 1186.8594,698.0469 Q1187.7969,698.0469 1188.4531,697.7969 Q1188.8438,697.6406 1189.2656,697.2031 Q1189.5313,696.9375 1189.6719,696.8594 Q1189.8281,696.7813 1190.0313,696.7813 Q1190.3594,696.7813 1190.6094,697.0469 Q1190.875,697.2969 1190.875,697.6406 Q1190.875,697.9844 1190.5313,698.3906 Q1190.0313,698.9688 1189.2344,699.2969 Q1188.1563,699.75 1186.8594,699.75 Q1185.3438,699.75 1184.1406,699.125 Q1183.1563,698.625 1182.4688,697.5625 Q1181.7813,696.4844 1181.7813,695.2031 L1181.7813,694.0469 Q1181.7813,692.7188 1182.3906,691.5781 Q1183.0156,690.4219 1184.1094,689.8125 Q1185.2031,689.1875 1186.4375,689.1875 Q1187.1719,689.1875 1187.8125,689.3594 Q1188.4688,689.5156 1189.0156,689.875 Z " fill="#000000"/><text fill="#000000" font-family="sans-serif" font-size="14" lengthAdjust="spacing" textLength="31" x="1206.75" y="699.7969">Pollo</text><line style="stroke:#181818;stroke-width:0.5;" x1="1099" x2="1313" y1="710" y2="710"/><text fill="#000000" font-family="sans-serif" font-size="14" lengthAdjust="spacing" textLength="204" x="1104" y="729.1074">final REPRESENTACION : String</text><line style="stroke:#181818;stroke-width:0.5;" x1="1099" x2="1313" y1="736.6211" y2="736.6211"/><ellipse cx="1109" cy="751.4316" fill="#84BE84" rx="3" ry="3" style="stroke:#038048;stroke-width:1.0;"/><text fill="#000000" font-family="sans-serif" font-size="14" lengthAdjust="spacing" textLength="130" x="1118" y="755.7285">Pollo(String coccion)</text><ellipse cx="1109" cy="770.0527" fill="#84BE84" rx="3" ry="3" style="stroke:#038048;stroke-width:1.0;"/><text fill="#000000" font-family="sans-serif" font-size="14" lengthAdjust="spacing" textLength="88" x="1118" y="774.3496">void mostrar()</text></g><!--class Queso--><g id="elem_Queso"><rect codeLine="55" fill="#F1F1F1" height="66.6211" id="Queso" rx="2.5" ry="2.5" style="stroke:#181818;stroke-width:0.5;" width="167" x="644.5" y="696.5"/><ellipse cx="702.75" cy="712.5" fill="#A9DCDF" rx="11" ry="11" style="stroke:#181818;stroke-width:1.0;"/><path d="M704.9375,714.2656 L700.7969,714.2656 L700.375,715.2969 L700.7969,715.2969 Q701.4063,715.2969 701.6719,715.5313 Q701.9375,715.7656 701.9375,716.1563 Q701.9375,716.5313 701.6719,716.7656 Q701.4063,717 700.7969,717 L698.5,717 Q697.8906,717 697.6406,716.7656 Q697.375,716.5313 697.375,716.1406 Q697.375,715.7656 697.6563,715.5313 Q697.9219,715.2813 698.5469,715.2969 L701.2188,708.6406 L700.1094,708.6406 Q699.5,708.6406 699.2344,708.4063 Q698.9688,708.1719 698.9688,707.7813 Q698.9688,707.4063 699.2344,707.1719 Q699.5,706.9375 700.1094,706.9375 L703.7813,706.9375 L707.1719,715.2969 Q707.7656,715.2969 707.9531,715.4375 Q708.3438,715.7031 708.3438,716.1563 Q708.3438,716.5313 708.0781,716.7656 Q707.8281,717 707.2188,717 L704.9219,717 Q704.3125,717 704.0469,716.7656 Q703.7813,716.5313 703.7813,716.1406 Q703.7813,715.7656 704.0469,715.5313 Q704.3125,715.2969 704.9219,715.2969 L705.3438,715.2969 L704.9375,714.2656 Z M704.2188,712.5625 L702.8594,709.1875 L701.4844,712.5625 L704.2188,712.5625 Z " fill="#000000"/><text fill="#000000" font-family="sans-serif" font-size="14" font-style="italic" lengthAdjust="spacing" textLength="42" x="723.25" y="718.2969">Queso</text><line style="stroke:#181818;stroke-width:0.5;" x1="645.5" x2="810.5" y1="728.5" y2="728.5"/><line style="stroke:#181818;stroke-width:0.5;" x1="645.5" x2="810.5" y1="736.5" y2="736.5"/><polygon fill="#FFFF44" points="655.5,746.3105,659.5,750.3105,655.5,754.3105,651.5,750.3105" style="stroke:#B38D22;stroke-width:1.0;"/><text fill="#000000" font-family="sans-serif" font-size="14" lengthAdjust="spacing" textLength="141" x="664.5" y="755.6074">Queso(String nombre)</text></g><!--class Cheddar--><g id="elem_Cheddar"><rect codeLine="58" fill="#F1F1F1" height="103.8633" id="Cheddar" rx="2.5" ry="2.5" style="stroke:#181818;stroke-width:0.5;" width="216" x="583" y="851"/><ellipse cx="659.25" cy="867" fill="#ADD1B2" rx="11" ry="11" style="stroke:#181818;stroke-width:1.0;"/><path d="M662.0156,862.875 Q662.1719,862.6563 662.3594,862.5469 Q662.5469,862.4375 662.7656,862.4375 Q663.1406,862.4375 663.375,862.7031 Q663.6094,862.9531 663.6094,863.5625 L663.6094,865.0156 Q663.6094,865.625 663.375,865.8906 Q663.1406,866.1563 662.7656,866.1563 Q662.4219,866.1563 662.2188,865.9531 Q662.0156,865.7656 661.9063,865.25 Q661.8594,864.8906 661.6719,864.7031 Q661.3438,864.3281 660.7344,864.1094 Q660.125,863.8906 659.5,863.8906 Q658.7344,863.8906 658.0938,864.2188 Q657.4688,864.5469 656.9688,865.2969 Q656.4844,866.0469 656.4844,867.0781 L656.4844,868.1719 Q656.4844,869.4063 657.375,870.2344 Q658.2656,871.0469 659.8594,871.0469 Q660.7969,871.0469 661.4531,870.7969 Q661.8438,870.6406 662.2656,870.2031 Q662.5313,869.9375 662.6719,869.8594 Q662.8281,869.7813 663.0313,869.7813 Q663.3594,869.7813 663.6094,870.0469 Q663.875,870.2969 663.875,870.6406 Q663.875,870.9844 663.5313,871.3906 Q663.0313,871.9688 662.2344,872.2969 Q661.1563,872.75 659.8594,872.75 Q658.3438,872.75 657.1406,872.125 Q656.1563,871.625 655.4688,870.5625 Q654.7813,869.4844 654.7813,868.2031 L654.7813,867.0469 Q654.7813,865.7188 655.3906,864.5781 Q656.0156,863.4219 657.1094,862.8125 Q658.2031,862.1875 659.4375,862.1875 Q660.1719,862.1875 660.8125,862.3594 Q661.4688,862.5156 662.0156,862.875 Z " fill="#000000"/><text fill="#000000" font-family="sans-serif" font-size="14" lengthAdjust="spacing" textLength="55" x="679.75" y="872.7969">Cheddar</text><line style="stroke:#181818;stroke-width:0.5;" x1="584" x2="798" y1="883" y2="883"/><text fill="#000000" font-family="sans-serif" font-size="14" lengthAdjust="spacing" textLength="204" x="589" y="902.1074">final REPRESENTACION : String</text><line style="stroke:#181818;stroke-width:0.5;" x1="584" x2="798" y1="909.6211" y2="909.6211"/><ellipse cx="594" cy="924.4316" fill="#84BE84" rx="3" ry="3" style="stroke:#038048;stroke-width:1.0;"/><text fill="#000000" font-family="sans-serif" font-size="14" lengthAdjust="spacing" textLength="65" x="603" y="928.7285">Cheddar()</text><ellipse cx="594" cy="943.0527" fill="#84BE84" rx="3" ry="3" style="stroke:#038048;stroke-width:1.0;"/><text fill="#000000" font-family="sans-serif" font-size="14" lengthAdjust="spacing" textLength="88" x="603" y="947.3496">void mostrar()</text></g><!--class Brioche--><g id="elem_Brioche"><rect codeLine="64" fill="#F1F1F1" height="103.8633" id="Brioche" rx="2.5" ry="2.5" style="stroke:#181818;stroke-width:0.5;" width="216" x="1349" y="678"/><ellipse cx="1428.75" cy="694" fill="#ADD1B2" rx="11" ry="11" style="stroke:#181818;stroke-width:1.0;"/><path d="M1431.5156,689.875 Q1431.6719,689.6563 1431.8594,689.5469 Q1432.0469,689.4375 1432.2656,689.4375 Q1432.6406,689.4375 1432.875,689.7031 Q1433.1094,689.9531 1433.1094,690.5625 L1433.1094,692.0156 Q1433.1094,692.625 1432.875,692.8906 Q1432.6406,693.1563 1432.2656,693.1563 Q1431.9219,693.1563 1431.7188,692.9531 Q1431.5156,692.7656 1431.4063,692.25 Q1431.3594,691.8906 1431.1719,691.7031 Q1430.8438,691.3281 1430.2344,691.1094 Q1429.625,690.8906 1429,690.8906 Q1428.2344,690.8906 1427.5938,691.2188 Q1426.9688,691.5469 1426.4688,692.2969 Q1425.9844,693.0469 1425.9844,694.0781 L1425.9844,695.1719 Q1425.9844,696.4063 1426.875,697.2344 Q1427.7656,698.0469 1429.3594,698.0469 Q1430.2969,698.0469 1430.9531,697.7969 Q1431.3438,697.6406 1431.7656,697.2031 Q1432.0313,696.9375 1432.1719,696.8594 Q1432.3281,696.7813 1432.5313,696.7813 Q1432.8594,696.7813 1433.1094,697.0469 Q1433.375,697.2969 1433.375,697.6406 Q1433.375,697.9844 1433.0313,698.3906 Q1432.5313,698.9688 1431.7344,699.2969 Q1430.6563,699.75 1429.3594,699.75 Q1427.8438,699.75 1426.6406,699.125 Q1425.6563,698.625 1424.9688,697.5625 Q1424.2813,696.4844 1424.2813,695.2031 L1424.2813,694.0469 Q1424.2813,692.7188 1424.8906,691.5781 Q1425.5156,690.4219 1426.6094,689.8125 Q1427.7031,689.1875 1428.9375,689.1875 Q1429.6719,689.1875 1430.3125,689.3594 Q1430.9688,689.5156 1431.5156,689.875 Z " fill="#000000"/><text fill="#000000" font-family="sans-serif" font-size="14" lengthAdjust="spacing" textLength="48" x="1449.25" y="699.7969">Brioche</text><line style="stroke:#181818;stroke-width:0.5;" x1="1350" x2="1564" y1="710" y2="710"/><text fill="#000000" font-family="sans-serif" font-size="14" lengthAdjust="spacing" textLength="204" x="1355" y="729.1074">final REPRESENTACION : String</text><line style="stroke:#181818;stroke-width:0.5;" x1="1350" x2="1564" y1="736.6211" y2="736.6211"/><ellipse cx="1360" cy="751.4316" fill="#84BE84" rx="3" ry="3" style="stroke:#038048;stroke-width:1.0;"/><text fill="#000000" font-family="sans-serif" font-size="14" lengthAdjust="spacing" textLength="58" x="1369" y="755.7285">Brioche()</text><ellipse cx="1360" cy="770.0527" fill="#84BE84" rx="3" ry="3" style="stroke:#038048;stroke-width:1.0;"/><text fill="#000000" font-family="sans-serif" font-size="14" lengthAdjust="spacing" textLength="88" x="1369" y="774.3496">void mostrar()</text></g><!--class Azul--><g id="elem_Azul"><rect codeLine="70" fill="#F1F1F1" height="103.8633" id="Azul" rx="2.5" ry="2.5" style="stroke:#181818;stroke-width:0.5;" width="216" x="834" y="851"/><ellipse cx="924.75" cy="867" fill="#ADD1B2" rx="11" ry="11" style="stroke:#181818;stroke-width:1.0;"/><path d="M927.5156,862.875 Q927.6719,862.6563 927.8594,862.5469 Q928.0469,862.4375 928.2656,862.4375 Q928.6406,862.4375 928.875,862.7031 Q929.1094,862.9531 929.1094,863.5625 L929.1094,865.0156 Q929.1094,865.625 928.875,865.8906 Q928.6406,866.1563 928.2656,866.1563 Q927.9219,866.1563 927.7188,865.9531 Q927.5156,865.7656 927.4063,865.25 Q927.3594,864.8906 927.1719,864.7031 Q926.8438,864.3281 926.2344,864.1094 Q925.625,863.8906 925,863.8906 Q924.2344,863.8906 923.5938,864.2188 Q922.9688,864.5469 922.4688,865.2969 Q921.9844,866.0469 921.9844,867.0781 L921.9844,868.1719 Q921.9844,869.4063 922.875,870.2344 Q923.7656,871.0469 925.3594,871.0469 Q926.2969,871.0469 926.9531,870.7969 Q927.3438,870.6406 927.7656,870.2031 Q928.0313,869.9375 928.1719,869.8594 Q928.3281,869.7813 928.5313,869.7813 Q928.8594,869.7813 929.1094,870.0469 Q929.375,870.2969 929.375,870.6406 Q929.375,870.9844 929.0313,871.3906 Q928.5313,871.9688 927.7344,872.2969 Q926.6563,872.75 925.3594,872.75 Q923.8438,872.75 922.6406,872.125 Q921.6563,871.625 920.9688,870.5625 Q920.2813,869.4844 920.2813,868.2031 L920.2813,867.0469 Q920.2813,865.7188 920.8906,864.5781 Q921.5156,863.4219 922.6094,862.8125 Q923.7031,862.1875 924.9375,862.1875 Q925.6719,862.1875 926.3125,862.3594 Q926.9688,862.5156 927.5156,862.875 Z " fill="#000000"/><text fill="#000000" font-family="sans-serif" font-size="14" lengthAdjust="spacing" textLength="26" x="945.25" y="872.7969">Azul</text><line style="stroke:#181818;stroke-width:0.5;" x1="835" x2="1049" y1="883" y2="883"/><text fill="#000000" font-family="sans-serif" font-size="14" lengthAdjust="spacing" textLength="204" x="840" y="902.1074">final REPRESENTACION : String</text><line style="stroke:#181818;stroke-width:0.5;" x1="835" x2="1049" y1="909.6211" y2="909.6211"/><ellipse cx="845" cy="924.4316" fill="#84BE84" rx="3" ry="3" style="stroke:#038048;stroke-width:1.0;"/><text fill="#000000" font-family="sans-serif" font-size="14" lengthAdjust="spacing" textLength="36" x="854" y="928.7285">Azul()</text><ellipse cx="845" cy="943.0527" fill="#84BE84" rx="3" ry="3" style="stroke:#038048;stroke-width:1.0;"/><text fill="#000000" font-family="sans-serif" font-size="14" lengthAdjust="spacing" textLength="88" x="854" y="947.3496">void mostrar()</text></g><!--class Restaurante--><g id="elem_Restaurante"><rect codeLine="76" fill="#F1F1F1" height="85.2422" id="Restaurante" rx="2.5" ry="2.5" style="stroke:#181818;stroke-width:0.5;" width="210" x="1342" y="174.5"/><ellipse cx="1403.75" cy="190.5" fill="#ADD1B2" rx="11" ry="11" style="stroke:#181818;stroke-width:1.0;"/><path d="M1406.5156,186.375 Q1406.6719,186.1563 1406.8594,186.0469 Q1407.0469,185.9375 1407.2656,185.9375 Q1407.6406,185.9375 1407.875,186.2031 Q1408.1094,186.4531 1408.1094,187.0625 L1408.1094,188.5156 Q1408.1094,189.125 1407.875,189.3906 Q1407.6406,189.6563 1407.2656,189.6563 Q1406.9219,189.6563 1406.7188,189.4531 Q1406.5156,189.2656 1406.4063,188.75 Q1406.3594,188.3906 1406.1719,188.2031 Q1405.8438,187.8281 1405.2344,187.6094 Q1404.625,187.3906 1404,187.3906 Q1403.2344,187.3906 1402.5938,187.7188 Q1401.9688,188.0469 1401.4688,188.7969 Q1400.9844,189.5469 1400.9844,190.5781 L1400.9844,191.6719 Q1400.9844,192.9063 1401.875,193.7344 Q1402.7656,194.5469 1404.3594,194.5469 Q1405.2969,194.5469 1405.9531,194.2969 Q1406.3438,194.1406 1406.7656,193.7031 Q1407.0313,193.4375 1407.1719,193.3594 Q1407.3281,193.2813 1407.5313,193.2813 Q1407.8594,193.2813 1408.1094,193.5469 Q1408.375,193.7969 1408.375,194.1406 Q1408.375,194.4844 1408.0313,194.8906 Q1407.5313,195.4688 1406.7344,195.7969 Q1405.6563,196.25 1404.3594,196.25 Q1402.8438,196.25 1401.6406,195.625 Q1400.6563,195.125 1399.9688,194.0625 Q1399.2813,192.9844 1399.2813,191.7031 L1399.2813,190.5469 Q1399.2813,189.2188 1399.8906,188.0781 Q1400.5156,186.9219 1401.6094,186.3125 Q1402.7031,185.6875 1403.9375,185.6875 Q1404.6719,185.6875 1405.3125,185.8594 Q1405.9688,186.0156 1406.5156,186.375 Z " fill="#000000"/><text fill="#000000" font-family="sans-serif" font-size="14" lengthAdjust="spacing" textLength="78" x="1424.25" y="196.2969">Restaurante</text><line style="stroke:#181818;stroke-width:0.5;" x1="1343" x2="1551" y1="206.5" y2="206.5"/><line style="stroke:#181818;stroke-width:0.5;" x1="1343" x2="1551" y1="214.5" y2="214.5"/><rect fill="#F24D5C" height="6" style="stroke:#C82930;stroke-width:1.0;" width="6" x="1350" y="226.3105"/><text fill="#000000" font-family="sans-serif" font-size="14" lengthAdjust="spacing" textLength="89" x="1362" y="233.6074">void atender()</text><rect fill="#F24D5C" height="6" style="stroke:#C82930;stroke-width:1.0;" width="6" x="1350" y="244.9316"/><text fill="#000000" font-family="sans-serif" font-size="14" lengthAdjust="spacing" textLength="184" x="1362" y="252.2285">static void main(String[] args)</text></g><!--class Res--><g id="elem_Res"><rect codeLine="80" fill="#F1F1F1" height="85.2422" id="Res" rx="2.5" ry="2.5" style="stroke:#181818;stroke-width:0.5;" width="150" x="1567" y="505.5"/><ellipse cx="1625.25" cy="521.5" fill="#ADD1B2" rx="11" ry="11" style="stroke:#181818;stroke-width:1.0;"/><path d="M1628.0156,517.375 Q1628.1719,517.1563 1628.3594,517.0469 Q1628.5469,516.9375 1628.7656,516.9375 Q1629.1406,516.9375 1629.375,517.2031 Q1629.6094,517.4531 1629.6094,518.0625 L1629.6094,519.5156 Q1629.6094,520.125 1629.375,520.3906 Q1629.1406,520.6563 1628.7656,520.6563 Q1628.4219,520.6563 1628.2188,520.4531 Q1628.0156,520.2656 1627.9063,519.75 Q1627.8594,519.3906 1627.6719,519.2031 Q1627.3438,518.8281 1626.7344,518.6094 Q1626.125,518.3906 1625.5,518.3906 Q1624.7344,518.3906 1624.0938,518.7188 Q1623.4688,519.0469 1622.9688,519.7969 Q1622.4844,520.5469 1622.4844,521.5781 L1622.4844,522.6719 Q1622.4844,523.9063 1623.375,524.7344 Q1624.2656,525.5469 1625.8594,525.5469 Q1626.7969,525.5469 1627.4531,525.2969 Q1627.8438,525.1406 1628.2656,524.7031 Q1628.5313,524.4375 1628.6719,524.3594 Q1628.8281,524.2813 1629.0313,524.2813 Q1629.3594,524.2813 1629.6094,524.5469 Q1629.875,524.7969 1629.875,525.1406 Q1629.875,525.4844 1629.5313,525.8906 Q1629.0313,526.4688 1628.2344,526.7969 Q1627.1563,527.25 1625.8594,527.25 Q1624.3438,527.25 1623.1406,526.625 Q1622.1563,526.125 1621.4688,525.0625 Q1620.7813,523.9844 1620.7813,522.7031 L1620.7813,521.5469 Q1620.7813,520.2188 1621.3906,519.0781 Q1622.0156,517.9219 1623.1094,517.3125 Q1624.2031,516.6875 1625.4375,516.6875 Q1626.1719,516.6875 1626.8125,516.8594 Q1627.4688,517.0156 1628.0156,517.375 Z " fill="#000000"/><text fill="#000000" font-family="sans-serif" font-size="14" lengthAdjust="spacing" textLength="25" x="1645.75" y="527.2969">Res</text><line style="stroke:#181818;stroke-width:0.5;" x1="1568" x2="1716" y1="537.5" y2="537.5"/><line style="stroke:#181818;stroke-width:0.5;" x1="1568" x2="1716" y1="545.5" y2="545.5"/><ellipse cx="1578" cy="560.3105" fill="#84BE84" rx="3" ry="3" style="stroke:#038048;stroke-width:1.0;"/><text fill="#000000" font-family="sans-serif" font-size="14" lengthAdjust="spacing" textLength="124" x="1587" y="564.6074">Res(String coccion)</text><ellipse cx="1578" cy="578.9316" fill="#84BE84" rx="3" ry="3" style="stroke:#038048;stroke-width:1.0;"/><text fill="#000000" font-family="sans-serif" font-size="14" lengthAdjust="spacing" textLength="88" x="1587" y="583.2285">void mostrar()</text></g><!--class Carnes--><g id="elem_Carnes"><rect fill="#F1F1F1" height="48" id="Carnes" rx="2.5" ry="2.5" style="stroke:#181818;stroke-width:0.5;" width="78" x="1603" y="193"/><ellipse cx="1618" cy="209" fill="#ADD1B2" rx="11" ry="11" style="stroke:#181818;stroke-width:1.0;"/><path d="M1620.7656,204.875 Q1620.9219,204.6563 1621.1094,204.5469 Q1621.2969,204.4375 1621.5156,204.4375 Q1621.8906,204.4375 1622.125,204.7031 Q1622.3594,204.9531 1622.3594,205.5625 L1622.3594,207.0156 Q1622.3594,207.625 1622.125,207.8906 Q1621.8906,208.1563 1621.5156,208.1563 Q1621.1719,208.1563 1620.9688,207.9531 Q1620.7656,207.7656 1620.6563,207.25 Q1620.6094,206.8906 1620.4219,206.7031 Q1620.0938,206.3281 1619.4844,206.1094 Q1618.875,205.8906 1618.25,205.8906 Q1617.4844,205.8906 1616.8438,206.2188 Q1616.2188,206.5469 1615.7188,207.2969 Q1615.2344,208.0469 1615.2344,209.0781 L1615.2344,210.1719 Q1615.2344,211.4063 1616.125,212.2344 Q1617.0156,213.0469 1618.6094,213.0469 Q1619.5469,213.0469 1620.2031,212.7969 Q1620.5938,212.6406 1621.0156,212.2031 Q1621.2813,211.9375 1621.4219,211.8594 Q1621.5781,211.7813 1621.7813,211.7813 Q1622.1094,211.7813 1622.3594,212.0469 Q1622.625,212.2969 1622.625,212.6406 Q1622.625,212.9844 1622.2813,213.3906 Q1621.7813,213.9688 1620.9844,214.2969 Q1619.9063,214.75 1618.6094,214.75 Q1617.0938,214.75 1615.8906,214.125 Q1614.9063,213.625 1614.2188,212.5625 Q1613.5313,211.4844 1613.5313,210.2031 L1613.5313,209.0469 Q1613.5313,207.7188 1614.1406,206.5781 Q1614.7656,205.4219 1615.8594,204.8125 Q1616.9531,204.1875 1618.1875,204.1875 Q1618.9219,204.1875 1619.5625,204.3594 Q1620.2188,204.5156 1620.7656,204.875 Z " fill="#000000"/><text fill="#000000" font-family="sans-serif" font-size="14" lengthAdjust="spacing" textLength="46" x="1632" y="214.7969">Carnes</text><line style="stroke:#181818;stroke-width:0.5;" x1="1604" x2="1680" y1="225" y2="225"/><line style="stroke:#181818;stroke-width:0.5;" x1="1604" x2="1680" y1="233" y2="233"/></g><!--class Cocinero--><g id="elem_Cocinero"><rect codeLine="84" fill="#F1F1F1" height="85.2422" id="Cocinero" rx="2.5" ry="2.5" style="stroke:#181818;stroke-width:0.5;" width="209" x="85.5" y="505.5"/><ellipse cx="157.25" cy="521.5" fill="#ADD1B2" rx="11" ry="11" style="stroke:#181818;stroke-width:1.0;"/><path d="M160.0156,517.375 Q160.1719,517.1563 160.3594,517.0469 Q160.5469,516.9375 160.7656,516.9375 Q161.1406,516.9375 161.375,517.2031 Q161.6094,517.4531 161.6094,518.0625 L161.6094,519.5156 Q161.6094,520.125 161.375,520.3906 Q161.1406,520.6563 160.7656,520.6563 Q160.4219,520.6563 160.2188,520.4531 Q160.0156,520.2656 159.9063,519.75 Q159.8594,519.3906 159.6719,519.2031 Q159.3438,518.8281 158.7344,518.6094 Q158.125,518.3906 157.5,518.3906 Q156.7344,518.3906 156.0938,518.7188 Q155.4688,519.0469 154.9688,519.7969 Q154.4844,520.5469 154.4844,521.5781 L154.4844,522.6719 Q154.4844,523.9063 155.375,524.7344 Q156.2656,525.5469 157.8594,525.5469 Q158.7969,525.5469 159.4531,525.2969 Q159.8438,525.1406 160.2656,524.7031 Q160.5313,524.4375 160.6719,524.3594 Q160.8281,524.2813 161.0313,524.2813 Q161.3594,524.2813 161.6094,524.5469 Q161.875,524.7969 161.875,525.1406 Q161.875,525.4844 161.5313,525.8906 Q161.0313,526.4688 160.2344,526.7969 Q159.1563,527.25 157.8594,527.25 Q156.3438,527.25 155.1406,526.625 Q154.1563,526.125 153.4688,525.0625 Q152.7813,523.9844 152.7813,522.7031 L152.7813,521.5469 Q152.7813,520.2188 153.3906,519.0781 Q154.0156,517.9219 155.1094,517.3125 Q156.2031,516.6875 157.4375,516.6875 Q158.1719,516.6875 158.8125,516.8594 Q159.4688,517.0156 160.0156,517.375 Z " fill="#000000"/><text fill="#000000" font-family="sans-serif" font-size="14" lengthAdjust="spacing" textLength="57" x="177.75" y="527.2969">Cocinero</text><line style="stroke:#181818;stroke-width:0.5;" x1="86.5" x2="293.5" y1="537.5" y2="537.5"/><line style="stroke:#181818;stroke-width:0.5;" x1="86.5" x2="293.5" y1="545.5" y2="545.5"/><ellipse cx="96.5" cy="560.3105" fill="#84BE84" rx="3" ry="3" style="stroke:#038048;stroke-width:1.0;"/><text fill="#000000" font-family="sans-serif" font-size="14" lengthAdjust="spacing" textLength="183" x="105.5" y="564.6074">void prepararHamburguesa()</text><ellipse cx="96.5" cy="578.9316" fill="#84BE84" rx="3" ry="3" style="stroke:#038048;stroke-width:1.0;"/><text fill="#000000" font-family="sans-serif" font-size="14" lengthAdjust="spacing" textLength="160" x="105.5" y="583.2285">entregar(): Hamburguesa</text></g><!--class Camarero--><g id="elem_Camarero"><rect codeLine="88" fill="#F1F1F1" height="85.2422" id="Camarero" rx="2.5" ry="2.5" style="stroke:#181818;stroke-width:0.5;" width="284" x="330" y="505.5"/><ellipse cx="436.25" cy="521.5" fill="#ADD1B2" rx="11" ry="11" style="stroke:#181818;stroke-width:1.0;"/><path d="M439.0156,517.375 Q439.1719,517.1563 439.3594,517.0469 Q439.5469,516.9375 439.7656,516.9375 Q440.1406,516.9375 440.375,517.2031 Q440.6094,517.4531 440.6094,518.0625 L440.6094,519.5156 Q440.6094,520.125 440.375,520.3906 Q440.1406,520.6563 439.7656,520.6563 Q439.4219,520.6563 439.2188,520.4531 Q439.0156,520.2656 438.9063,519.75 Q438.8594,519.3906 438.6719,519.2031 Q438.3438,518.8281 437.7344,518.6094 Q437.125,518.3906 436.5,518.3906 Q435.7344,518.3906 435.0938,518.7188 Q434.4688,519.0469 433.9688,519.7969 Q433.4844,520.5469 433.4844,521.5781 L433.4844,522.6719 Q433.4844,523.9063 434.375,524.7344 Q435.2656,525.5469 436.8594,525.5469 Q437.7969,525.5469 438.4531,525.2969 Q438.8438,525.1406 439.2656,524.7031 Q439.5313,524.4375 439.6719,524.3594 Q439.8281,524.2813 440.0313,524.2813 Q440.3594,524.2813 440.6094,524.5469 Q440.875,524.7969 440.875,525.1406 Q440.875,525.4844 440.5313,525.8906 Q440.0313,526.4688 439.2344,526.7969 Q438.1563,527.25 436.8594,527.25 Q435.3438,527.25 434.1406,526.625 Q433.1563,526.125 432.4688,525.0625 Q431.7813,523.9844 431.7813,522.7031 L431.7813,521.5469 Q431.7813,520.2188 432.3906,519.0781 Q433.0156,517.9219 434.1094,517.3125 Q435.2031,516.6875 436.4375,516.6875 Q437.1719,516.6875 437.8125,516.8594 Q438.4688,517.0156 439.0156,517.375 Z " fill="#000000"/><text fill="#000000" font-family="sans-serif" font-size="14" lengthAdjust="spacing" textLength="63" x="456.75" y="527.2969">Camarero</text><line style="stroke:#181818;stroke-width:0.5;" x1="331" x2="613" y1="537.5" y2="537.5"/><line style="stroke:#181818;stroke-width:0.5;" x1="331" x2="613" y1="545.5" y2="545.5"/><ellipse cx="341" cy="560.3105" fill="#84BE84" rx="3" ry="3" style="stroke:#038048;stroke-width:1.0;"/><text fill="#000000" font-family="sans-serif" font-size="14" lengthAdjust="spacing" textLength="258" x="350" y="564.6074">void recibir(Hamburguesa hamburguesa)</text><ellipse cx="341" cy="578.9316" fill="#84BE84" rx="3" ry="3" style="stroke:#038048;stroke-width:1.0;"/><text fill="#000000" font-family="sans-serif" font-size="14" lengthAdjust="spacing" textLength="75" x="350" y="583.2285">void servir()</text></g><!--class Huevo--><g id="elem_Huevo"><rect codeLine="92" fill="#F1F1F1" height="103.8633" id="Huevo" rx="2.5" ry="2.5" style="stroke:#181818;stroke-width:0.5;" width="216" x="847" y="678"/><ellipse cx="930.75" cy="694" fill="#ADD1B2" rx="11" ry="11" style="stroke:#181818;stroke-width:1.0;"/><path d="M933.5156,689.875 Q933.6719,689.6563 933.8594,689.5469 Q934.0469,689.4375 934.2656,689.4375 Q934.6406,689.4375 934.875,689.7031 Q935.1094,689.9531 935.1094,690.5625 L935.1094,692.0156 Q935.1094,692.625 934.875,692.8906 Q934.6406,693.1563 934.2656,693.1563 Q933.9219,693.1563 933.7188,692.9531 Q933.5156,692.7656 933.4063,692.25 Q933.3594,691.8906 933.1719,691.7031 Q932.8438,691.3281 932.2344,691.1094 Q931.625,690.8906 931,690.8906 Q930.2344,690.8906 929.5938,691.2188 Q928.9688,691.5469 928.4688,692.2969 Q927.9844,693.0469 927.9844,694.0781 L927.9844,695.1719 Q927.9844,696.4063 928.875,697.2344 Q929.7656,698.0469 931.3594,698.0469 Q932.2969,698.0469 932.9531,697.7969 Q933.3438,697.6406 933.7656,697.2031 Q934.0313,696.9375 934.1719,696.8594 Q934.3281,696.7813 934.5313,696.7813 Q934.8594,696.7813 935.1094,697.0469 Q935.375,697.2969 935.375,697.6406 Q935.375,697.9844 935.0313,698.3906 Q934.5313,698.9688 933.7344,699.2969 Q932.6563,699.75 931.3594,699.75 Q929.8438,699.75 928.6406,699.125 Q927.6563,698.625 926.9688,697.5625 Q926.2813,696.4844 926.2813,695.2031 L926.2813,694.0469 Q926.2813,692.7188 926.8906,691.5781 Q927.5156,690.4219 928.6094,689.8125 Q929.7031,689.1875 930.9375,689.1875 Q931.6719,689.1875 932.3125,689.3594 Q932.9688,689.5156 933.5156,689.875 Z " fill="#000000"/><text fill="#000000" font-family="sans-serif" font-size="14" lengthAdjust="spacing" textLength="40" x="951.25" y="699.7969">Huevo</text><line style="stroke:#181818;stroke-width:0.5;" x1="848" x2="1062" y1="710" y2="710"/><text fill="#000000" font-family="sans-serif" font-size="14" lengthAdjust="spacing" textLength="204" x="853" y="729.1074">final REPRESENTACION : String</text><line style="stroke:#181818;stroke-width:0.5;" x1="848" x2="1062" y1="736.6211" y2="736.6211"/><ellipse cx="858" cy="751.4316" fill="#84BE84" rx="3" ry="3" style="stroke:#038048;stroke-width:1.0;"/><text fill="#000000" font-family="sans-serif" font-size="14" lengthAdjust="spacing" textLength="50" x="867" y="755.7285">Huevo()</text><ellipse cx="858" cy="770.0527" fill="#84BE84" rx="3" ry="3" style="stroke:#038048;stroke-width:1.0;"/><text fill="#000000" font-family="sans-serif" font-size="14" lengthAdjust="spacing" textLength="88" x="867" y="774.3496">void mostrar()</text></g><!--class Integral--><g id="elem_Integral"><rect codeLine="98" fill="#F1F1F1" height="103.8633" id="Integral" rx="2.5" ry="2.5" style="stroke:#181818;stroke-width:0.5;" width="216" x="1600" y="678"/><ellipse cx="1680.25" cy="694" fill="#ADD1B2" rx="11" ry="11" style="stroke:#181818;stroke-width:1.0;"/><path d="M1683.0156,689.875 Q1683.1719,689.6563 1683.3594,689.5469 Q1683.5469,689.4375 1683.7656,689.4375 Q1684.1406,689.4375 1684.375,689.7031 Q1684.6094,689.9531 1684.6094,690.5625 L1684.6094,692.0156 Q1684.6094,692.625 1684.375,692.8906 Q1684.1406,693.1563 1683.7656,693.1563 Q1683.4219,693.1563 1683.2188,692.9531 Q1683.0156,692.7656 1682.9063,692.25 Q1682.8594,691.8906 1682.6719,691.7031 Q1682.3438,691.3281 1681.7344,691.1094 Q1681.125,690.8906 1680.5,690.8906 Q1679.7344,690.8906 1679.0938,691.2188 Q1678.4688,691.5469 1677.9688,692.2969 Q1677.4844,693.0469 1677.4844,694.0781 L1677.4844,695.1719 Q1677.4844,696.4063 1678.375,697.2344 Q1679.2656,698.0469 1680.8594,698.0469 Q1681.7969,698.0469 1682.4531,697.7969 Q1682.8438,697.6406 1683.2656,697.2031 Q1683.5313,696.9375 1683.6719,696.8594 Q1683.8281,696.7813 1684.0313,696.7813 Q1684.3594,696.7813 1684.6094,697.0469 Q1684.875,697.2969 1684.875,697.6406 Q1684.875,697.9844 1684.5313,698.3906 Q1684.0313,698.9688 1683.2344,699.2969 Q1682.1563,699.75 1680.8594,699.75 Q1679.3438,699.75 1678.1406,699.125 Q1677.1563,698.625 1676.4688,697.5625 Q1675.7813,696.4844 1675.7813,695.2031 L1675.7813,694.0469 Q1675.7813,692.7188 1676.3906,691.5781 Q1677.0156,690.4219 1678.1094,689.8125 Q1679.2031,689.1875 1680.4375,689.1875 Q1681.1719,689.1875 1681.8125,689.3594 Q1682.4688,689.5156 1683.0156,689.875 Z " fill="#000000"/><text fill="#000000" font-family="sans-serif" font-size="14" lengthAdjust="spacing" textLength="47" x="1700.75" y="699.7969">Integral</text><line style="stroke:#181818;stroke-width:0.5;" x1="1601" x2="1815" y1="710" y2="710"/><text fill="#000000" font-family="sans-serif" font-size="14" lengthAdjust="spacing" textLength="204" x="1606" y="729.1074">final REPRESENTACION : String</text><line style="stroke:#181818;stroke-width:0.5;" x1="1601" x2="1815" y1="736.6211" y2="736.6211"/><ellipse cx="1611" cy="751.4316" fill="#84BE84" rx="3" ry="3" style="stroke:#038048;stroke-width:1.0;"/><text fill="#000000" font-family="sans-serif" font-size="14" lengthAdjust="spacing" textLength="57" x="1620" y="755.7285">Integral()</text><ellipse cx="1611" cy="770.0527" fill="#84BE84" rx="3" ry="3" style="stroke:#038048;stroke-width:1.0;"/><text fill="#000000" font-family="sans-serif" font-size="14" lengthAdjust="spacing" textLength="88" x="1620" y="774.3496">void mostrar()</text></g><!--class Hamburgesa--><g id="elem_Hamburgesa"><rect codeLine="104" fill="#F1F1F1" height="420.4219" id="Hamburgesa" rx="2.5" ry="2.5" style="stroke:#181818;stroke-width:0.5;" width="553" x="1716.5" y="7"/><ellipse cx="1948.75" cy="23" fill="#ADD1B2" rx="11" ry="11" style="stroke:#181818;stroke-width:1.0;"/><path d="M1951.5156,18.875 Q1951.6719,18.6563 1951.8594,18.5469 Q1952.0469,18.4375 1952.2656,18.4375 Q1952.6406,18.4375 1952.875,18.7031 Q1953.1094,18.9531 1953.1094,19.5625 L1953.1094,21.0156 Q1953.1094,21.625 1952.875,21.8906 Q1952.6406,22.1563 1952.2656,22.1563 Q1951.9219,22.1563 1951.7188,21.9531 Q1951.5156,21.7656 1951.4063,21.25 Q1951.3594,20.8906 1951.1719,20.7031 Q1950.8438,20.3281 1950.2344,20.1094 Q1949.625,19.8906 1949,19.8906 Q1948.2344,19.8906 1947.5938,20.2188 Q1946.9688,20.5469 1946.4688,21.2969 Q1945.9844,22.0469 1945.9844,23.0781 L1945.9844,24.1719 Q1945.9844,25.4063 1946.875,26.2344 Q1947.7656,27.0469 1949.3594,27.0469 Q1950.2969,27.0469 1950.9531,26.7969 Q1951.3438,26.6406 1951.7656,26.2031 Q1952.0313,25.9375 1952.1719,25.8594 Q1952.3281,25.7813 1952.5313,25.7813 Q1952.8594,25.7813 1953.1094,26.0469 Q1953.375,26.2969 1953.375,26.6406 Q1953.375,26.9844 1953.0313,27.3906 Q1952.5313,27.9688 1951.7344,28.2969 Q1950.6563,28.75 1949.3594,28.75 Q1947.8438,28.75 1946.6406,28.125 Q1945.6563,27.625 1944.9688,26.5625 Q1944.2813,25.4844 1944.2813,24.2031 L1944.2813,23.0469 Q1944.2813,21.7188 1944.8906,20.5781 Q1945.5156,19.4219 1946.6094,18.8125 Q1947.7031,18.1875 1948.9375,18.1875 Q1949.6719,18.1875 1950.3125,18.3594 Q1950.9688,18.5156 1951.5156,18.875 Z " fill="#000000"/><text fill="#000000" font-family="sans-serif" font-size="14" lengthAdjust="spacing" textLength="80" x="1969.25" y="28.7969">Hamburgesa</text><line style="stroke:#181818;stroke-width:0.5;" x1="1717.5" x2="2268.5" y1="39" y2="39"/><rect fill="none" height="6" style="stroke:#C82930;stroke-width:1.0;" width="6" x="1724.5" y="50.8105"/><text fill="#000000" font-family="sans-serif" font-size="14" lengthAdjust="spacing" textLength="199" x="1736.5" y="58.1074">ingredientes : List&lt;Ingrediente&gt;</text><rect fill="none" height="6" style="stroke:#C82930;stroke-width:1.0;" width="6" x="1724.5" y="69.4316"/><text fill="#000000" font-family="sans-serif" font-size="14" lengthAdjust="spacing" textLength="120" x="1736.5" y="76.7285">extras : List&lt;Extra&gt;</text><rect fill="none" height="6" style="stroke:#C82930;stroke-width:1.0;" width="6" x="1724.5" y="88.0527"/><text fill="#000000" font-family="sans-serif" font-size="14" lengthAdjust="spacing" textLength="114" x="1736.5" y="95.3496">panes : List&lt;Pan&gt;</text><rect fill="none" height="6" style="stroke:#C82930;stroke-width:1.0;" width="6" x="1724.5" y="106.6738"/><text fill="#000000" font-family="sans-serif" font-size="14" lengthAdjust="spacing" textLength="87" x="1736.5" y="113.9707">carne : Carne</text><rect fill="none" height="6" style="stroke:#C82930;stroke-width:1.0;" width="6" x="1724.5" y="125.2949"/><text fill="#000000" font-family="sans-serif" font-size="14" lengthAdjust="spacing" textLength="134" x="1736.5" y="132.5918">extrasAgregados : int</text><line style="stroke:#181818;stroke-width:0.5;" x1="1717.5" x2="2268.5" y1="140.1055" y2="140.1055"/><ellipse cx="1727.5" cy="154.916" fill="#84BE84" rx="3" ry="3" style="stroke:#038048;stroke-width:1.0;"/><text fill="#000000" font-family="sans-serif" font-size="14" lengthAdjust="spacing" textLength="527" x="1736.5" y="159.2129">Hamburguesa(panSuperior: Pan, panInferior: Pan, carne: Carne, numeroExtras: int)</text><ellipse cx="1727.5" cy="173.5371" fill="#84BE84" rx="3" ry="3" style="stroke:#038048;stroke-width:1.0;"/><text fill="#000000" font-family="sans-serif" font-size="14" lengthAdjust="spacing" textLength="189" x="1736.5" y="177.834">void agregarExtra(Extra extra)</text><ellipse cx="1727.5" cy="192.1582" fill="#84BE84" rx="3" ry="3" style="stroke:#038048;stroke-width:1.0;"/><text fill="#000000" font-family="sans-serif" font-size="14" lengthAdjust="spacing" textLength="188" x="1736.5" y="196.4551">void eliminarExtra(Extra extra)</text><ellipse cx="1727.5" cy="210.7793" fill="#84BE84" rx="3" ry="3" style="stroke:#038048;stroke-width:1.0;"/><text fill="#000000" font-family="sans-serif" font-size="14" lengthAdjust="spacing" textLength="208" x="1736.5" y="215.0762">void cambiarCarne(Carne carne)</text><ellipse cx="1727.5" cy="229.4004" fill="#84BE84" rx="3" ry="3" style="stroke:#038048;stroke-width:1.0;"/><text fill="#000000" font-family="sans-serif" font-size="14" lengthAdjust="spacing" textLength="222" x="1736.5" y="233.6973">void cambiarPanSuperior(Pan pan)</text><ellipse cx="1727.5" cy="248.0215" fill="#84BE84" rx="3" ry="3" style="stroke:#038048;stroke-width:1.0;"/><text fill="#000000" font-family="sans-serif" font-size="14" lengthAdjust="spacing" textLength="212" x="1736.5" y="252.3184">void cambiarPanInferior(Pan pan)</text><ellipse cx="1727.5" cy="266.6426" fill="#84BE84" rx="3" ry="3" style="stroke:#038048;stroke-width:1.0;"/><text fill="#000000" font-family="sans-serif" font-size="14" lengthAdjust="spacing" textLength="343" x="1736.5" y="270.9395">void cambiarExtra(extraViejo: Extra, extraNuevo: Extra)</text><ellipse cx="1727.5" cy="285.2637" fill="#84BE84" rx="3" ry="3" style="stroke:#038048;stroke-width:1.0;"/><text fill="#000000" font-family="sans-serif" font-size="14" lengthAdjust="spacing" textLength="246" x="1736.5" y="289.5605">void quitaPanIntermedio(pan: panInter)</text><ellipse cx="1727.5" cy="303.8848" fill="#84BE84" rx="3" ry="3" style="stroke:#038048;stroke-width:1.0;"/><text fill="#000000" font-family="sans-serif" font-size="14" lengthAdjust="spacing" textLength="193" x="1736.5" y="308.1816">void quitaCarne(carne: Carne)</text><ellipse cx="1727.5" cy="322.5059" fill="#84BE84" rx="3" ry="3" style="stroke:#038048;stroke-width:1.0;"/><text fill="#000000" font-family="sans-serif" font-size="14" lengthAdjust="spacing" textLength="336" x="1736.5" y="326.8027">void agregarExtrasPosicion(posicion: int, extra: Extra)</text><ellipse cx="1727.5" cy="341.127" fill="#84BE84" rx="3" ry="3" style="stroke:#038048;stroke-width:1.0;"/><text fill="#000000" font-family="sans-serif" font-size="14" lengthAdjust="spacing" textLength="309" x="1736.5" y="345.4238">void moverExtra(posicion: int, nuevaPosicion: int)</text><ellipse cx="1727.5" cy="359.748" fill="#84BE84" rx="3" ry="3" style="stroke:#038048;stroke-width:1.0;"/><text fill="#000000" font-family="sans-serif" font-size="14" lengthAdjust="spacing" textLength="344" x="1736.5" y="364.0449">void agregapanesPosicion(posicion: int, pan: panInter)</text><ellipse cx="1727.5" cy="378.3691" fill="#84BE84" rx="3" ry="3" style="stroke:#038048;stroke-width:1.0;"/><text fill="#000000" font-family="sans-serif" font-size="14" lengthAdjust="spacing" textLength="348" x="1736.5" y="382.666">void agregarCarnePosicion(posicion: int, carne: Carne)</text><ellipse cx="1727.5" cy="396.9902" fill="#84BE84" rx="3" ry="3" style="stroke:#038048;stroke-width:1.0;"/><text fill="#000000" font-family="sans-serif" font-size="14" lengthAdjust="spacing" textLength="88" x="1736.5" y="401.2871">void mostrar()</text><ellipse cx="1727.5" cy="415.6113" fill="#84BE84" rx="3" ry="3" style="stroke:#038048;stroke-width:1.0;"/><text fill="#000000" font-family="sans-serif" font-size="14" lengthAdjust="spacing" textLength="109" x="1736.5" y="419.9082">describir(): String</text></g><!--reverse link Ingrediente to Extra--><g id="link_Ingrediente_Extra"><path d="M1117.0121,279.2545 C1017.6221,347.6545 858.92,456.89 775.47,514.32 " fill="none" id="Ingrediente-backto-Extra" style="stroke:#181818;stroke-width:1.0;"/><polygon fill="none" points="1131.84,269.05,1113.6106,274.3119,1120.4136,284.1972,1131.84,269.05" style="stroke:#181818;stroke-width:1.0;"/></g><!--reverse link Ingrediente to Carne--><g id="link_Ingrediente_Carne"><path d="M1206,287.05 C1206,345.88 1206,424.48 1206,486.9 " fill="none" id="Ingrediente-backto-Carne" style="stroke:#181818;stroke-width:1.0;"/><polygon fill="none" points="1206,269.05,1200,287.05,1212,287.05,1206,269.05" style="stroke:#181818;stroke-width:1.0;"/></g><!--reverse link Ingrediente to Pan--><g id="link_Ingrediente_Pan"><path d="M1237.0121,285.6412 C1258.2521,329.8012 1284.53,377.73 1324,427 C1350.44,460.01 1386.33,491.81 1414.16,514.38 " fill="none" id="Ingrediente-backto-Pan" style="stroke:#181818;stroke-width:1.0;"/><polygon fill="none" points="1229.21,269.42,1231.605,288.2419,1242.4191,283.0405,1229.21,269.42" style="stroke:#181818;stroke-width:1.0;"/></g><!--reverse link Extra to Salsa--><g id="link_Extra_Salsa"><path d="M663.8798,591.15 C648.7698,600.58 647.12,600.96 631,609 C565.27,641.79 545.29,641.95 477,669 C471.3,671.26 465.47,673.57 459.59,675.92 " fill="none" id="Extra-backto-Salsa" style="stroke:#181818;stroke-width:1.0;"/><polygon fill="none" points="679.15,581.62,660.7031,586.0599,667.0565,596.2401,679.15,581.62" style="stroke:#181818;stroke-width:1.0;"/></g><!--reverse link Salsa to Ketchup--><g id="link_Salsa_Ketchup"><path d="M239.163,802.3177 C214.833,821.8477 202.11,832.07 178.67,850.89 " fill="none" id="Salsa-backto-Ketchup" style="stroke:#181818;stroke-width:1.0;"/><polygon fill="none" points="253.2,791.05,235.4071,797.6387,242.9189,806.9967,253.2,791.05" style="stroke:#181818;stroke-width:1.0;"/></g><!--reverse link Salsa to Mayonesa--><g id="link_Salsa_Mayonesa"><path d="M345.3,808.8624 C349.61,828.2824 350.45,832.04 354.61,850.75 " fill="none" id="Salsa-backto-Mayonesa" style="stroke:#181818;stroke-width:1.0;"/><polygon fill="none" points="341.4,791.29,339.4425,810.1624,351.1574,807.5624,341.4,791.29" style="stroke:#181818;stroke-width:1.0;"/></g><!--reverse link Extra to panInter--><g id="link_Extra_panInter"><path d="M683.5438,594.468 C654.5138,624.148 624.1,655.26 592.62,687.46 " fill="none" id="Extra-backto-panInter" style="stroke:#181818;stroke-width:1.0;"/><polygon fill="none" points="696.13,581.6,679.2544,590.2726,687.8331,598.6635,696.13,581.6" style="stroke:#181818;stroke-width:1.0;"/></g><!--reverse link Carne to Pollo--><g id="link_Carne_Pollo"><path d="M1206,627.19 C1206,649.47 1206,656.5 1206,677.89 " fill="none" id="Carne-backto-Pollo" style="stroke:#181818;stroke-width:1.0;"/><polygon fill="none" points="1206,609.19,1200,627.19,1212,627.19,1206,609.19" style="stroke:#181818;stroke-width:1.0;"/></g><!--reverse link Extra to Queso--><g id="link_Extra_Queso"><path d="M728,599.6 C728,632.12 728,663.8 728,696.34 " fill="none" id="Extra-backto-Queso" style="stroke:#181818;stroke-width:1.0;"/><polygon fill="none" points="728,581.6,722,599.6,734,599.6,728,581.6" style="stroke:#181818;stroke-width:1.0;"/></g><!--reverse link Queso to Cheddar--><g id="link_Queso_Cheddar"><path d="M717.1467,781.1636 C711.8267,805.7736 708.21,822.44 702.1,850.72 " fill="none" id="Queso-backto-Cheddar" style="stroke:#181818;stroke-width:1.0;"/><polygon fill="none" points="720.95,763.57,711.2822,779.8959,723.0113,782.4314,720.95,763.57" style="stroke:#181818;stroke-width:1.0;"/></g><!--reverse link Pan to Brioche--><g id="link_Pan_Brioche"><path d="M1457,599.6 C1457,626.44 1457,646.99 1457,677.93 " fill="none" id="Pan-backto-Brioche" style="stroke:#181818;stroke-width:1.0;"/><polygon fill="none" points="1457,581.6,1451,599.6,1463,599.6,1457,581.6" style="stroke:#181818;stroke-width:1.0;"/></g><!--reverse link Queso to Azul--><g id="link_Queso_Azul"><path d="M782.8223,774.8062 C813.6223,799.4162 842.44,822.44 877.83,850.72 " fill="none" id="Queso-backto-Azul" style="stroke:#181818;stroke-width:1.0;"/><polygon fill="none" points="768.76,763.57,779.0769,779.4936,786.5677,770.1187,768.76,763.57" style="stroke:#181818;stroke-width:1.0;"/></g><!--reverse link Carnes to Res--><g id="link_Carnes_Res"><path d="M1642,259.13 C1642,314.13 1642,435.31 1642,505.36 " fill="none" id="Carnes-backto-Res" style="stroke:#181818;stroke-width:1.0;"/><polygon fill="none" points="1642,241.13,1636,259.13,1648,259.13,1642,241.13" style="stroke:#181818;stroke-width:1.0;"/></g><!--reverse link Empleado to Cocinero--><g id="link_Empleado_Cocinero"><path d="M302.0304,285.595 C274.1904,350.565 233.7,445.04 207.9,505.23 " fill="none" id="Empleado-backto-Cocinero" style="stroke:#181818;stroke-width:1.0;"/><polygon fill="none" points="309.12,269.05,296.5154,283.2318,307.5454,287.9582,309.12,269.05" style="stroke:#181818;stroke-width:1.0;"/></g><!--reverse link Empleado to Camarero--><g id="link_Empleado_Camarero"><path d="M359.9696,285.595 C387.8096,350.565 428.3,445.04 454.1,505.23 " fill="none" id="Empleado-backto-Camarero" style="stroke:#181818;stroke-width:1.0;"/><polygon fill="none" points="352.88,269.05,354.4546,287.9582,365.4846,283.2318,352.88,269.05" style="stroke:#181818;stroke-width:1.0;"/></g><!--reverse link Extra to Huevo--><g id="link_Extra_Huevo"><path d="M783.2159,592.7814 C817.0759,619.6214 851.57,646.99 890.59,677.93 " fill="none" id="Extra-backto-Huevo" style="stroke:#181818;stroke-width:1.0;"/><polygon fill="none" points="769.11,581.6,779.4888,597.4834,786.943,588.0794,769.11,581.6" style="stroke:#181818;stroke-width:1.0;"/></g><!--reverse link Pan to Integral--><g id="link_Pan_Integral"><path d="M1517.0792,592.0874 C1554.5192,618.9274 1593.64,646.99 1636.78,677.93 " fill="none" id="Pan-backto-Integral" style="stroke:#181818;stroke-width:1.0;"/><polygon fill="none" points="1502.45,581.6,1513.5834,596.9638,1520.575,587.211,1502.45,581.6" style="stroke:#181818;stroke-width:1.0;"/></g><!--SRC=[hLRRZjem47tdAopn4WJy0AegqHNIhhQbALHzgVemEBF1LMAdjeEshVRVwriIPpS1TjKtOi-PEMSk7k2Wj0Ig2Ir0AR8fgm8X4-JlX10o9RTG7cgPrwY07BlV_l8WX37cH3Fa65bExFMySPNC9ayJw8Uvuxd4pC0qDf6uA0yILsIl9UEvTv6Xef8Tc4ncxOKzRxsT1Cj8AUoN78gpUJHV11yrycmmgZD8lEj0OS3D3KYEuswML53A1E-JTw2-wqKm804m-pygKrE3KN96fBc_A74FXUeovVFcyKj2WMkMGTRJHwOECYOmG9p2KOddD7fQzwZfiQvQOYwcv_N0E1Hajqbtc_rc-tLzS_TvI_eKvm6U3BCQYVa9VWkEKJPU6RJ1lovg1VpE54tsQ-2ZpflBvBoFL1I5Q1su1hoUjWCd0mqw4EvPytmnKoy6csVgxrwsNnYi8sOPT9gTyVMK0_n2LZv89kYncryp3jU72E0B8TP_wkAj8YpsWliTAWsrD7rawxbqLc23-OvOcblDQ9WXOCsqV_z1GEQgvwVV7IhqbxcuilAXRe8oZZAgUNZiWpzFfP9OWG56gw4HQjudYJcuzo3U76q0A46U2U3yIwJkJHbPKh44XVB4OWMtDPx4qAnTKp87lb0pEw-vXE9jRTUWBmG9oh5vdfQiU_wLyVcHAVqkMWdllHLQkUsz4nzkp4FJ0GtZS4pT0bpvfebzh7DRnanO3EEwoKzKSEDnNrTenaYkR0uM_gLxY4-S- -1zGNXTciexLifvZNC0Bg3qUxjTxx9NR2nOQN9yteWQZWoatz9-mJiQ0pPf9o6nkzO86BPgP9snyfmScsyCVugLxxs59xYrZHMEOl2lccb8mn8eJJ65pUkgNHelRBsiEAzZILIfKCnEV5A57oxdWT00brASCCXuXk26FQJnsSkWhi76Gevg2eITa37mcDXkQaR_YZpz0m00]--></g></svg>
